<svg id="visual" viewBox="0 0 900 600" width="900" height="600" xmlns="http://www.w3.org/2000/svg" xmlns:xlink="http://www.w3.org/1999/xlink" version="1.1"><rect x="0" y="0" width="900" height="600" fill="#F9FAFB"></rect><defs><linearGradient id="grad1_0" x1="33.3%" y1="100%" x2="100%" y2="0%"><stop offset="20%" stop-color="#83fffb" stop-opacity="1"></stop><stop offset="80%" stop-color="#83fffb" stop-opacity="1"></stop></linearGradient></defs><defs><linearGradient id="grad1_1" x1="33.3%" y1="100%" x2="100%" y2="0%"><stop offset="20%" stop-color="#83fffb" stop-opacity="1"></stop><stop offset="80%" stop-color="#b0fdff" stop-opacity="1"></stop></linearGradient></defs><defs><linearGradient id="grad1_2" x1="33.3%" y1="100%" x2="100%" y2="0%"><stop offset="20%" stop-color="#dbfaff" stop-opacity="1"></stop><stop offset="80%" stop-color="#b0fdff" stop-opacity="1"></stop></linearGradient></defs><defs><linearGradient id="grad1_3" x1="33.3%" y1="100%" x2="100%" y2="0%"><stop offset="20%" stop-color="#dbfaff" stop-opacity="1"></stop><stop offset="80%" stop-color="#f9fafb" stop-opacity="1"></stop></linearGradient></defs><defs><linearGradient id="grad2_0" x1="0%" y1="100%" x2="66.7%" y2="0%"><stop offset="20%" stop-color="#83fffb" stop-opacity="1"></stop><stop offset="80%" stop-color="#83fffb" stop-opacity="1"></stop></linearGradient></defs><defs><linearGradient id="grad2_1" x1="0%" y1="100%" x2="66.7%" y2="0%"><stop offset="20%" stop-color="#b0fdff" stop-opacity="1"></stop><stop offset="80%" stop-color="#83fffb" stop-opacity="1"></stop></linearGradient></defs><defs><linearGradient id="grad2_2" x1="0%" y1="100%" x2="66.7%" y2="0%"><stop offset="20%" stop-color="#b0fdff" stop-opacity="1"></stop><stop offset="80%" stop-color="#dbfaff" stop-opacity="1"></stop></linearGradient></defs><defs><linearGradient id="grad2_3" x1="0%" y1="100%" x2="66.7%" y2="0%"><stop offset="20%" stop-color="#f9fafb" stop-opacity="1"></stop><stop offset="80%" stop-color="#dbfaff" stop-opacity="1"></stop></linearGradient></defs><g transform="translate(900, 600)"><path d="M-486.7 0C-475.3 -87.4 -463.9 -174.8 -421.5 -243.4C-379.2 -312 -305.9 -361.8 -230.5 -399.2C-155.1 -436.7 -77.5 -461.7 0 -486.7L0 0Z" fill="#ecfaff"></path><path d="M-365.1 0C-356.5 -65.5 -347.9 -131.1 -316.2 -182.5C-284.4 -234 -229.4 -271.4 -172.9 -299.4C-116.3 -327.5 -58.2 -346.3 0 -365.1L0 0Z" fill="#c6fbff"></path><path d="M-243.4 0C-237.7 -43.7 -231.9 -87.4 -210.8 -121.7C-189.6 -156 -153 -180.9 -115.3 -199.6C-77.5 -218.3 -38.8 -230.9 0 -243.4L0 0Z" fill="#99feff"></path><path d="M-121.7 0C-118.8 -21.8 -116 -43.7 -105.4 -60.8C-94.8 -78 -76.5 -90.5 -57.6 -99.8C-38.8 -109.2 -19.4 -115.4 0 -121.7L0 0Z" fill="#83fffb"></path></g><g transform="translate(0, 0)"><path d="M486.7 0C462.2 77.8 437.6 155.6 400.1 231C362.6 306.4 312.2 379.3 243.4 421.5C174.5 463.8 87.3 475.3 0 486.7L0 0Z" fill="#ecfaff"></path><path d="M365.1 0C346.6 58.4 328.2 116.7 300.1 173.2C272 229.8 234.2 284.5 182.5 316.2C130.9 347.8 65.5 356.4 0 365.1L0 0Z" fill="#c6fbff"></path><path d="M243.4 0C231.1 38.9 218.8 77.8 200.1 115.5C181.3 153.2 156.1 189.7 121.7 210.8C87.3 231.9 43.6 237.6 0 243.4L0 0Z" fill="#99feff"></path><path d="M121.7 0C115.5 19.5 109.4 38.9 100 57.7C90.7 76.6 78.1 94.8 60.8 105.4C43.6 115.9 21.8 118.8 0 121.7L0 0Z" fill="#83fffb"></path></g></svg>